<?xml version="1.0" encoding="UTF-8" standalone="no"?>
<svg width="800px" height="800px" viewBox="0 0 800 800" version="1.1" xmlns="http://www.w3.org/2000/svg" xmlns:xlink="http://www.w3.org/1999/xlink" style="background: #B3DFE1;">
    <!-- Generator: Sketch 3.7.2 (28276) - http://www.bohemiancoding.com/sketch -->
    <title>pocketwalk</title>
    <desc>Created with Sketch.</desc>
    <defs></defs>
    <g id="Page-1" stroke="none" stroke-width="1" fill="none" fill-rule="evenodd">
        <g id="pocketwalk">
            <g id="jump-marker" transform="translate(308.000000, 242.000000)">
                <path d="M115.819858,180.886527 L92,317 L68.1801423,180.886527 C28.9165741,170.391228 0,134.572528 0,92 C0,41.189803 41.189803,0 92,0 C142.810197,0 184,41.189803 184,92 C184,134.572528 155.083426,170.391228 115.81986,180.886518 Z" id="Combined-Shape" fill="#FFFFFF"></path>
                <ellipse id="Oval-2" fill="#2AD7A4" cx="91.5" cy="92" rx="68.5" ry="70"></ellipse>
            </g>
            <path id="walking" d="M399.999988,628.32486 C399.999988,648.882019 341.093704,789.291987 208.668879,800.000018 C75.1236769,810.798644 -131.797393,691.372278 -95.2282648,586.524615 C-22.3968052,377.708911 283.325531,281.635608 167.770288,-99.8244448" id="dotted-path" stroke="#FFFFFF" stroke-width="16" stroke-dasharray="30,30"></path>
            <rect id="Rectangle-1" fill-opacity="0.193415987" fill="#91DBDE" x="0" y="0" width="800" height="800"></rect>
        </g>
    </g>
</svg>
