<?xml version="1.0" encoding="UTF-8" standalone="no"?>
<svg width="800px" height="800px" viewBox="0 0 800 800" version="1.1" xmlns="http://www.w3.org/2000/svg" xmlns:xlink="http://www.w3.org/1999/xlink" style="background: #F8F4E7;">
    <!-- Generator: Sketch 3.7.2 (28276) - http://www.bohemiancoding.com/sketch -->
    <title>wavy</title>
    <desc>Created with Sketch.</desc>
    <defs></defs>
    <g id="Page-1" stroke="none" stroke-width="1" fill="none" fill-rule="evenodd">
        <g id="wavy">
            <text id="wavy-text" opacity="0.578766325" font-family="ArialMT, Arial" font-size="1000" font-weight="normal" fill="#46464B">
                <tspan x="-57" y="872">W</tspan>
            </text>
            <g id="waves" transform="translate(-6.000000, -143.000000)" stroke="#FFFFFF" stroke-width="8">
                <path id="wave1" d="M2,482.442341 C2,482.442341 106.497223,661.337144 286.395966,661.337146 C466.294708,661.337147 552.608032,433.798409 675.114746,433.789749 C768.880374,433.783121 815.190431,484.321516 815.190431,484.321516"></path>
                <path id="wave2" d="M2,444.442341 C2,444.442341 106.497223,623.337144 286.395966,623.337146 C466.294708,623.337147 552.608032,395.798409 675.114746,395.789749 C768.880374,395.783121 815.190431,446.321516 815.190431,446.321516"></path>
                <path id="wave3" d="M0,402.442341 C0,402.442341 104.497223,581.337144 284.395966,581.337146 C464.294708,581.337147 550.608032,353.798409 673.114746,353.789749 C766.880374,353.783121 813.190431,404.321516 813.190431,404.321516"></path>
                <path id="wave4" d="M6,348.442341 C6,348.442341 110.497223,527.337144 290.395966,527.337146 C470.294708,527.337147 556.608032,299.798409 679.114746,299.789749 C772.880374,299.783121 819.190431,350.321516 819.190431,350.321516"></path>
                <path id="wave5" d="M6,287.442341 C6,287.442341 110.497223,466.337144 290.395966,466.337146 C470.294708,466.337147 556.608032,238.798409 679.114746,238.789749 C772.880374,238.783121 819.190431,289.321516 819.190431,289.321516"></path>
                <path id="wave6" d="M6,214.442341 C6,214.442341 110.497223,393.337144 290.395966,393.337146 C470.294708,393.337147 556.608032,165.798409 679.114746,165.789749 C772.880374,165.783121 819.190431,216.321516 819.190431,216.321516"></path>
                <path id="wave7" d="M6,132.442341 C6,132.442341 110.497223,311.337144 290.395966,311.337146 C470.294708,311.337147 556.608032,83.7984093 679.114746,83.7897491 C772.880374,83.7831207 819.190431,134.321516 819.190431,134.321516"></path>
                <path id="wave8" d="M6,49.4423414 C6,49.4423414 110.497223,228.337144 290.395966,228.337146 C470.294708,228.337147 556.608032,0.798409299 679.114746,0.789749127 C772.880374,0.783120704 819.190431,51.3215156 819.190431,51.3215156"></path>
                <path id="wave9" d="M2,548.442341 C2,548.442341 106.497223,727.337144 286.395966,727.337146 C466.294708,727.337147 552.608032,499.798409 675.114746,499.789749 C768.880374,499.783121 815.190431,550.321516 815.190431,550.321516"></path>
                <path id="wave10" d="M2,576.442341 C2,576.442341 106.497223,755.337144 286.395966,755.337146 C466.294708,755.337147 552.608032,527.798409 675.114746,527.789749 C768.880374,527.783121 815.190431,578.321516 815.190431,578.321516"></path>
                <path id="wave11" d="M6,598.442341 C6,598.442341 110.497223,777.337144 290.395966,777.337146 C470.294708,777.337147 556.608032,549.798409 679.114746,549.789749 C772.880374,549.783121 819.190431,600.321516 819.190431,600.321516"></path>
                <path id="wave12" d="M6,621.442341 C6,621.442341 110.497223,800.337144 290.395966,800.337146 C470.294708,800.337147 556.608032,572.798409 679.114746,572.789749 C772.880374,572.783121 819.190431,623.321516 819.190431,623.321516"></path>
                <path id="wave13" d="M6,643.442341 C6,643.442341 110.497223,822.337144 290.395966,822.337146 C470.294708,822.337147 556.608032,594.798409 679.114746,594.789749 C772.880374,594.783121 819.190431,645.321516 819.190431,645.321516"></path>
                <path id="wave14" d="M6,662.442341 C6,662.442341 110.497223,841.337144 290.395966,841.337146 C470.294708,841.337147 556.608032,613.798409 679.114746,613.789749 C772.880374,613.783121 819.190431,664.321516 819.190431,664.321516"></path>
                <path id="wave15" d="M6,678.442341 C6,678.442341 110.497223,857.337144 290.395966,857.337146 C470.294708,857.337147 556.608032,629.798409 679.114746,629.789749 C772.880374,629.783121 819.190431,680.321516 819.190431,680.321516"></path>
                <path id="wave16" d="M6,692.442341 C6,692.442341 110.497223,871.337144 290.395966,871.337146 C470.294708,871.337147 556.608032,643.798409 679.114746,643.789749 C772.880374,643.783121 819.190431,694.321516 819.190431,694.321516"></path>
                <path id="wave17" d="M6,703.442341 C6,703.442341 110.497223,882.337144 290.395966,882.337146 C470.294708,882.337147 556.608032,654.798409 679.114746,654.789749 C772.880374,654.783121 819.190431,705.321516 819.190431,705.321516"></path>
                <path id="wave18" d="M6,712.442341 C6,712.442341 110.497223,891.337144 290.395966,891.337146 C470.294708,891.337147 556.608032,663.798409 679.114746,663.789749 C772.880374,663.783121 819.190431,714.321516 819.190431,714.321516"></path>
                <path id="wave19" d="M1.00056585,519.442341 C1.00056585,519.442341 104.497789,698.337144 284.396531,698.337146 C464.295274,698.337147 550.608598,470.798409 673.115312,470.789749 C766.88094,470.783121 813.190997,521.321516 813.190997,521.321516"></path>
            </g>
        </g>
    </g>
</svg>
